<svg width="104" height="39" viewBox="0 0 104 39" fill="none" xmlns="http://www.w3.org/2000/svg">
<g clip-path="url(#clip0_460_2837)">
<path d="M1.71368 30.3324L1.74065 30.4705C10.8182 53.6635 79.984 12.8678 104.001 33.7118C99.6778 33.8154 97.3623 37.1905 97.3515 37.1355C72.007 15.8847 10.8172 55.0803 0.319615 30.6863C0.187978 30.3065 -0.305123 28.5532 0.279692 26.5225C0.556994 25.559 0.967012 24.5641 1.90142 23.4689C3.04084 22.1342 4.33995 21.2538 5.9811 20.9387C6.29401 20.8783 6.6231 20.8438 6.96515 20.8351C8.82749 20.7823 10.4568 21.5009 11.853 22.9899C13.1057 24.3354 13.8815 25.9819 14.1815 27.9317L1.71476 30.3335L1.71368 30.3324ZM1.50759 28.9664L12.454 26.8581C12.1476 25.8611 11.6901 25.027 11.0826 24.357C9.63134 22.677 8.04953 22.0026 6.33501 22.3328C5.00785 22.5885 3.8544 23.3481 2.87575 24.6127C1.89603 25.8773 1.43961 27.3285 1.50651 28.9675L1.50759 28.9664Z" fill="#F29700"/>
<path d="M6.75195 11.4576C7.53099 11.4576 8.04459 12.0834 7.89353 12.8473L6.99149 17.4072C6.84043 18.1711 6.59226 18.1711 6.4412 17.4072L5.53809 12.8473C5.38703 12.0834 5.90063 11.4576 6.67966 11.4576H6.75195Z" fill="#F29700"/>
<path d="M12.7139 13.8044C13.4077 14.1594 13.5793 14.9503 13.097 15.5621L10.2161 19.2091C9.73268 19.8209 9.51256 19.7076 9.7262 18.9588L11.0005 14.4896C11.2141 13.7397 11.9565 13.417 12.6503 13.772L12.7139 13.8044Z" fill="#F29700"/>
<path d="M0.701391 13.9641C1.36389 13.5541 2.12998 13.8163 2.40297 14.5457L4.03225 18.8994C4.30523 19.6288 4.09483 19.7594 3.56396 19.1886L0.399273 15.7843C-0.131593 15.2136 -0.0226142 14.4119 0.639889 14.0018L0.701391 13.9641Z" fill="#F29700"/>
<path d="M24.5919 34.1834C24.0934 34.1834 23.6035 34.1391 23.1212 34.0496C21.5891 33.7475 20.3504 33.2209 19.4062 32.4732V31.0295C20.7431 31.9196 22.1501 32.5174 23.6294 32.8206C24.074 32.9102 24.5023 32.9544 24.9124 32.9544C27.1934 32.9544 28.5831 31.788 29.0827 29.4531C29.1183 29.2567 29.1366 29.0614 29.1366 28.865C29.1366 27.9565 28.6457 27.0124 27.666 26.0316C27.1675 25.5331 26.1241 24.7044 24.5379 23.5456C22.5418 22.0846 21.411 21.229 21.1434 20.9797C20.0569 19.9288 19.5131 18.7883 19.5131 17.5582C19.5131 17.2378 19.5476 16.9076 19.6199 16.5688C19.9404 15.0193 20.6525 13.8691 21.7574 13.1214C22.6486 12.5333 23.7093 12.2388 24.9383 12.2388C25.4551 12.2388 25.9892 12.2927 26.5427 12.3995C27.5937 12.6132 28.6004 13.0771 29.5628 13.7893V15.179C28.6004 14.3417 27.5225 13.8065 26.3291 13.5756C25.8306 13.4688 25.3666 13.416 24.9393 13.416C24.0837 13.416 23.3532 13.621 22.7468 14.031C21.8383 14.6374 21.2589 15.5718 21.0096 16.8374C20.9373 17.1579 20.9028 17.4352 20.9028 17.6661C20.9028 18.2725 21.1607 18.8681 21.6775 19.4572C22.1944 20.0442 23.2011 20.8923 24.6976 21.9961C27.0671 23.7614 28.609 25.0259 29.3222 25.792C30.1423 26.6844 30.5523 27.6188 30.5523 28.5996C30.5523 28.974 30.507 29.4196 30.4185 29.9364C30.1509 31.433 29.4916 32.5023 28.4396 33.1443C27.3347 33.8392 26.0518 34.1855 24.5908 34.1855L24.5919 34.1834Z" fill="#515248"/>
<path d="M46.0848 10.5901H40.5248V30.6108H39.1879V10.5901H33.6289V9.25319H46.0859V10.5901H46.0848Z" fill="#515248"/>
<path d="M60.3036 18.3232H51.937L49.2644 25.8881H47.8477L55.3596 4.5574H56.7494L64.4469 25.8881H63.0302L60.3036 18.3232ZM59.8223 16.9874L56.0534 6.56326L52.3913 16.9874H59.8213H59.8223Z" fill="#515248"/>
<path d="M69.0704 5.71625C68.3399 6.99917 67.8943 8.86152 67.7335 11.3033V12.6402C67.8943 15.0636 68.3399 16.9162 69.0704 18.2002C69.4987 18.948 70.2238 19.7108 71.2489 20.4855C72.2739 21.2602 73.7122 21.6487 75.5659 21.6487C76.509 21.6487 77.8814 21.5591 79.6812 21.3811V22.718C78.0066 22.8787 76.7323 22.9586 75.8594 22.9586C73.4004 22.9586 71.5197 22.4784 70.2195 21.5149C69.079 20.6776 68.26 19.8047 67.7605 18.8962C66.9404 17.4525 66.4775 15.4477 66.3707 12.8819H66.3438V11.0378H66.3707C66.4775 8.472 66.9404 6.46723 67.7605 5.02353C68.259 4.13228 69.079 3.25937 70.2195 2.40373C71.5197 1.45961 73.4004 0.987011 75.8594 0.987011C76.7323 0.987011 78.0066 1.0593 79.6812 1.20065V2.53753C77.8814 2.35949 76.509 2.27101 75.5659 2.27101C73.7122 2.27101 72.2685 2.66269 71.2359 3.44712C70.2022 4.23155 69.4804 4.989 69.0704 5.71948V5.71625Z" fill="#515248"/>
<path d="M98.1424 24.6763H96.3783C92.7604 20.738 89.108 17.0942 85.4189 13.744V24.6763H84.082V3.3457H85.4189V12.3801L95.6035 3.3457H97.6083L86.7029 13.0221C90.5873 16.586 94.4015 20.4704 98.1435 24.6763H98.1424Z" fill="#515248"/>
</g>
<defs>
<clipPath id="clip0_460_2837">
<rect width="104" height="38.0151" fill="white" transform="translate(0 0.984852)"/>
</clipPath>
</defs>
</svg>
