<svg width="165" height="183" viewBox="0 0 165 183" fill="none" xmlns="http://www.w3.org/2000/svg">
<circle cx="1.5" cy="1.5" r="1.5" fill="#FF931E" fill-opacity="0.6"/>
<circle cx="19.5" cy="1.5" r="1.5" fill="#FF931E" fill-opacity="0.6"/>
<circle cx="37.5" cy="1.5" r="1.5" fill="#FF931E" fill-opacity="0.6"/>
<circle cx="55.5" cy="1.5" r="1.5" fill="#FF931E" fill-opacity="0.6"/>
<circle cx="73.5" cy="1.5" r="1.5" fill="#FF931E" fill-opacity="0.6"/>
<circle cx="91.5" cy="1.5" r="1.5" fill="#FF931E" fill-opacity="0.6"/>
<circle cx="109.5" cy="1.5" r="1.5" fill="#FF931E" fill-opacity="0.6"/>
<circle cx="127.5" cy="1.5" r="1.5" fill="#FF931E" fill-opacity="0.6"/>
<circle cx="145.5" cy="1.5" r="1.5" fill="#FF931E" fill-opacity="0.6"/>
<circle cx="163.5" cy="1.5" r="1.5" fill="#FF931E" fill-opacity="0.6"/>
<circle cx="1.5" cy="21.5" r="1.5" fill="#FF931E" fill-opacity="0.6"/>
<circle cx="19.5" cy="21.5" r="1.5" fill="#FF931E" fill-opacity="0.6"/>
<circle cx="37.5" cy="21.5" r="1.5" fill="#FF931E" fill-opacity="0.6"/>
<circle cx="55.5" cy="21.5" r="1.5" fill="#FF931E" fill-opacity="0.6"/>
<circle cx="73.5" cy="21.5" r="1.5" fill="#FF931E" fill-opacity="0.6"/>
<circle cx="91.5" cy="21.5" r="1.5" fill="#FF931E" fill-opacity="0.6"/>
<circle cx="109.5" cy="21.5" r="1.5" fill="#FF931E" fill-opacity="0.6"/>
<circle cx="127.5" cy="21.5" r="1.5" fill="#FF931E" fill-opacity="0.6"/>
<circle cx="145.5" cy="21.5" r="1.5" fill="#FF931E" fill-opacity="0.6"/>
<circle cx="163.5" cy="21.5" r="1.5" fill="#FF931E" fill-opacity="0.6"/>
<circle cx="1.5" cy="41.5" r="1.5" fill="#FF931E" fill-opacity="0.6"/>
<circle cx="19.5" cy="41.5" r="1.5" fill="#FF931E" fill-opacity="0.6"/>
<circle cx="37.5" cy="41.5" r="1.5" fill="#FF931E" fill-opacity="0.6"/>
<circle cx="55.5" cy="41.5" r="1.5" fill="#FF931E" fill-opacity="0.6"/>
<circle cx="73.5" cy="41.5" r="1.5" fill="#FF931E" fill-opacity="0.6"/>
<circle cx="91.5" cy="41.5" r="1.5" fill="#FF931E" fill-opacity="0.6"/>
<circle cx="109.5" cy="41.5" r="1.5" fill="#FF931E" fill-opacity="0.6"/>
<circle cx="127.5" cy="41.5" r="1.5" fill="#FF931E" fill-opacity="0.6"/>
<circle cx="145.5" cy="41.5" r="1.5" fill="#FF931E" fill-opacity="0.6"/>
<circle cx="163.5" cy="41.5" r="1.5" fill="#FF931E" fill-opacity="0.6"/>
<circle cx="1.5" cy="61.5" r="1.5" fill="#FF931E" fill-opacity="0.6"/>
<circle cx="19.5" cy="61.5" r="1.5" fill="#FF931E" fill-opacity="0.6"/>
<circle cx="37.5" cy="61.5" r="1.5" fill="#FF931E" fill-opacity="0.6"/>
<circle cx="55.5" cy="61.5" r="1.5" fill="#FF931E" fill-opacity="0.6"/>
<circle cx="73.5" cy="61.5" r="1.5" fill="#FF931E" fill-opacity="0.6"/>
<circle cx="91.5" cy="61.5" r="1.5" fill="#FF931E" fill-opacity="0.6"/>
<circle cx="109.5" cy="61.5" r="1.5" fill="#FF931E" fill-opacity="0.6"/>
<circle cx="127.5" cy="61.5" r="1.5" fill="#FF931E" fill-opacity="0.6"/>
<circle cx="145.5" cy="61.5" r="1.5" fill="#FF931E" fill-opacity="0.6"/>
<circle cx="163.5" cy="61.5" r="1.5" fill="#FF931E" fill-opacity="0.6"/>
<circle cx="1.5" cy="81.5" r="1.5" fill="#FF931E" fill-opacity="0.6"/>
<circle cx="19.5" cy="81.5" r="1.5" fill="#FF931E" fill-opacity="0.6"/>
<circle cx="37.5" cy="81.5" r="1.5" fill="#FF931E" fill-opacity="0.6"/>
<circle cx="55.5" cy="81.5" r="1.5" fill="#FF931E" fill-opacity="0.6"/>
<circle cx="73.5" cy="81.5" r="1.5" fill="#FF931E" fill-opacity="0.6"/>
<circle cx="91.5" cy="81.5" r="1.5" fill="#FF931E" fill-opacity="0.6"/>
<circle cx="109.5" cy="81.5" r="1.5" fill="#FF931E" fill-opacity="0.6"/>
<circle cx="127.5" cy="81.5" r="1.5" fill="#FF931E" fill-opacity="0.6"/>
<circle cx="145.5" cy="81.5" r="1.5" fill="#FF931E" fill-opacity="0.6"/>
<circle cx="163.5" cy="81.5" r="1.5" fill="#FF931E" fill-opacity="0.6"/>
<circle cx="1.5" cy="101.5" r="1.5" fill="#FF931E" fill-opacity="0.6"/>
<circle cx="19.5" cy="101.5" r="1.5" fill="#FF931E" fill-opacity="0.6"/>
<circle cx="37.5" cy="101.5" r="1.5" fill="#FF931E" fill-opacity="0.6"/>
<circle cx="55.5" cy="101.5" r="1.5" fill="#FF931E" fill-opacity="0.6"/>
<circle cx="73.5" cy="101.5" r="1.5" fill="#FF931E" fill-opacity="0.6"/>
<circle cx="91.5" cy="101.5" r="1.5" fill="#FF931E" fill-opacity="0.6"/>
<circle cx="109.5" cy="101.5" r="1.5" fill="#FF931E" fill-opacity="0.6"/>
<circle cx="127.5" cy="101.5" r="1.5" fill="#FF931E" fill-opacity="0.6"/>
<circle cx="145.5" cy="101.5" r="1.5" fill="#FF931E" fill-opacity="0.6"/>
<circle cx="163.5" cy="101.5" r="1.5" fill="#FF931E" fill-opacity="0.6"/>
<circle cx="1.5" cy="121.5" r="1.5" fill="#FF931E" fill-opacity="0.6"/>
<circle cx="19.5" cy="121.5" r="1.5" fill="#FF931E" fill-opacity="0.6"/>
<circle cx="37.5" cy="121.5" r="1.5" fill="#FF931E" fill-opacity="0.6"/>
<circle cx="55.5" cy="121.5" r="1.5" fill="#FF931E" fill-opacity="0.6"/>
<circle cx="73.5" cy="121.5" r="1.5" fill="#FF931E" fill-opacity="0.6"/>
<circle cx="91.5" cy="121.5" r="1.5" fill="#FF931E" fill-opacity="0.6"/>
<circle cx="109.5" cy="121.5" r="1.5" fill="#FF931E" fill-opacity="0.6"/>
<circle cx="127.5" cy="121.5" r="1.5" fill="#FF931E" fill-opacity="0.6"/>
<circle cx="145.5" cy="121.5" r="1.5" fill="#FF931E" fill-opacity="0.6"/>
<circle cx="163.5" cy="121.5" r="1.5" fill="#FF931E" fill-opacity="0.6"/>
<circle cx="1.5" cy="141.5" r="1.5" fill="#FF931E" fill-opacity="0.6"/>
<circle cx="19.5" cy="141.5" r="1.5" fill="#FF931E" fill-opacity="0.6"/>
<circle cx="37.5" cy="141.5" r="1.5" fill="#FF931E" fill-opacity="0.6"/>
<circle cx="55.5" cy="141.5" r="1.5" fill="#FF931E" fill-opacity="0.6"/>
<circle cx="73.5" cy="141.5" r="1.5" fill="#FF931E" fill-opacity="0.6"/>
<circle cx="91.5" cy="141.5" r="1.5" fill="#FF931E" fill-opacity="0.6"/>
<circle cx="109.5" cy="141.5" r="1.5" fill="#FF931E" fill-opacity="0.6"/>
<circle cx="127.5" cy="141.5" r="1.5" fill="#FF931E" fill-opacity="0.6"/>
<circle cx="145.5" cy="141.5" r="1.5" fill="#FF931E" fill-opacity="0.6"/>
<circle cx="163.5" cy="141.5" r="1.5" fill="#FF931E" fill-opacity="0.6"/>
<circle cx="1.5" cy="161.5" r="1.5" fill="#FF931E" fill-opacity="0.6"/>
<circle cx="19.5" cy="161.5" r="1.5" fill="#FF931E" fill-opacity="0.6"/>
<circle cx="37.5" cy="161.5" r="1.5" fill="#FF931E" fill-opacity="0.6"/>
<circle cx="55.5" cy="161.5" r="1.5" fill="#FF931E" fill-opacity="0.6"/>
<circle cx="73.5" cy="161.5" r="1.5" fill="#FF931E" fill-opacity="0.6"/>
<circle cx="91.5" cy="161.5" r="1.5" fill="#FF931E" fill-opacity="0.6"/>
<circle cx="109.5" cy="161.5" r="1.5" fill="#FF931E" fill-opacity="0.6"/>
<circle cx="127.5" cy="161.5" r="1.5" fill="#FF931E" fill-opacity="0.6"/>
<circle cx="145.5" cy="161.5" r="1.5" fill="#FF931E" fill-opacity="0.6"/>
<circle cx="163.5" cy="161.5" r="1.5" fill="#FF931E" fill-opacity="0.6"/>
<circle cx="1.5" cy="181.5" r="1.5" fill="#FF931E" fill-opacity="0.6"/>
<circle cx="19.5" cy="181.5" r="1.5" fill="#FF931E" fill-opacity="0.6"/>
<circle cx="37.5" cy="181.5" r="1.5" fill="#FF931E" fill-opacity="0.6"/>
<circle cx="55.5" cy="181.5" r="1.5" fill="#FF931E" fill-opacity="0.6"/>
<circle cx="73.5" cy="181.5" r="1.5" fill="#FF931E" fill-opacity="0.6"/>
<circle cx="91.5" cy="181.5" r="1.5" fill="#FF931E" fill-opacity="0.6"/>
<circle cx="109.5" cy="181.5" r="1.5" fill="#FF931E" fill-opacity="0.6"/>
<circle cx="127.5" cy="181.5" r="1.5" fill="#FF931E" fill-opacity="0.6"/>
<circle cx="145.5" cy="181.5" r="1.5" fill="#FF931E" fill-opacity="0.6"/>
<circle cx="163.5" cy="181.5" r="1.5" fill="#FF931E" fill-opacity="0.6"/>
</svg>
